<svg viewBox="0 0 49 49" fill="none" xmlns="http://www.w3.org/2000/svg">
  <style>
    @media (prefers-color-scheme:dark){.layer{stroke:#f9f5f0}}
  </style>
  <path class="layer" d="m25.57 20.179-.57-.396-.57.396-18 12.5-1.183.821 1.183.821 18 12.5.57.397.57-.397 18-12.5 1.183-.821-1.183-.821-18-12.5Z" stroke="#243048" stroke-width="2"/>
  <path class="layer" d="m25.57 14.179-.57-.396-.57.396-18 12.5-1.183.821 1.183.821 18 12.5.57.397.57-.397 18-12.5 1.183-.821-1.183-.821-18-12.5Z" stroke="#243048" stroke-width="2"/>
  <path class="layer" d="M25.57 8.179 25 7.783l-.57.396-18 12.5-1.183.821 1.183.821 18 12.5.57.397.57-.397 18-12.5 1.183-.821-1.183-.821-18-12.5Z" stroke="#243048" stroke-width="2"/>
  <path class="layer" d="M25.57 2.179 25 1.783l-.57.396-18 12.5-1.183.821 1.183.821 18 12.5.57.396.57-.396 18-12.5 1.183-.821-1.183-.821-18-12.5Z" stroke="#243048" stroke-width="2"/>
</svg>
