<svg width="44" height="51" fill="none" xmlns="http://www.w3.org/2000/svg">
  <g stroke="#ED553B" stroke-width="3" stroke-linecap="round" stroke-linejoin="round">
    <path d="M39.647 25.53V10.82c0-.374-.149-.733-.413-.998l-7.409-7.408A1.411 1.411 0 0 0 30.827 2H3.412C2.632 2 2 2.632 2 3.412v44.235c0 .78.632 1.412 1.412 1.412H18.47M11.412 20.824h18.824m-18.824-9.412h9.412m-9.412 18.823h7.059"/>
    <path d="m30.954 37.56 2.14-4.535a.734.734 0 0 1 1.342 0l2.139 4.536 4.784.732c.614.093.858.883.414 1.336l-3.461 3.528.817 4.984c.105.64-.537 1.129-1.087.826l-4.277-2.354-4.278 2.354c-.55.303-1.191-.186-1.086-.826l.816-4.984-3.46-3.528c-.445-.453-.2-1.243.413-1.336l4.784-.732ZM30.236 2v8c0 .78.632 1.412 1.412 1.412h8"/>
  </g>
</svg>
