<svg width="44" height="48" fill="none" xmlns="http://www.w3.org/2000/svg">
  <path d="m2 13.111 7.778 4.445m0 0L22 24.222M9.778 17.556 2 19.778m7.778-2.222L8.667 9.778M42 35.333l-7.778-4.444m0 0L22 24.222m12.222 6.667 1.111 7.778m-1.11-7.778L42 28.667m-20-4.445L9.778 30.89M22 24.222V8.667m0 15.555v14.445m0-14.445 12.222-6.666M9.778 30.889 2 35.333m7.778-4.444L2 28.667m7.778 2.222-1.111 7.778M22 8.667V2m0 6.667-5.556-2.223M22 8.667l5.556-2.223M22 38.667v7.777m0-7.777L27.556 42M22 38.667 16.444 42m17.778-24.444L42 13.11m-7.778 4.445L42 19.778m-7.778-2.222 1.111-7.778" stroke="#ED553B" stroke-width="3" stroke-linecap="round" stroke-linejoin="round"/>
</svg>
