<svg width="44" height="50" fill="none" xmlns="http://www.w3.org/2000/svg">
  <g stroke="#ED553B" stroke-width="3" stroke-linejoin="round">
    <path d="M21.37 2.364a1.26 1.26 0 0 1 1.26 0l18.74 10.82c.39.224.63.64.63 1.09v21.64c0 .45-.24.866-.63 1.09l-18.74 10.82a1.26 1.26 0 0 1-1.26 0L2.63 37.004a1.26 1.26 0 0 1-.63-1.09v-21.64c0-.45.24-.866.63-1.09l18.74-10.82Z" stroke-linecap="round"/>
    <path d="M32.498 31.392H11.504L22 14.597l10.497 16.795Z" stroke-linecap="round"/>
    <path d="M2.057 13.547 22 14.597M2.057 13.547l9.447 17.845M41.946 13.547l-9.448 17.845M41.945 13.547 22 14.597V2M41.946 36.641l-9.448-5.249M2.057 36.641l9.447-5.249M11.504 31.392 22 48.188l10.497-16.796"/>
  </g>
</svg>
