<svg width="44" height="49" fill="none" xmlns="http://www.w3.org/2000/svg">
    <path d="m22.57 20.179-.57-.396-.57.396-18 12.5-1.183.821 1.183.821 18 12.5.57.397.57-.397 18-12.5 1.183-.821-1.183-.821-18-12.5Z" stroke="#f9f5f0" stroke-width="2"/>
    <path d="m22.57 14.179-.57-.396-.57.396-18 12.5-1.183.821 1.183.821 18 12.5.57.397.57-.397 18-12.5 1.183-.821-1.183-.821-18-12.5Z" stroke="#f9f5f0" stroke-width="2"/>
    <path d="M22.57 8.179 22 7.783l-.57.396-18 12.5-1.183.821 1.183.821 18 12.5.57.397.57-.397 18-12.5 1.183-.821-1.183-.821-18-12.5Z" stroke="#f9f5f0" stroke-width="2"/>
    <path d="M22.57 2.179 22 1.783l-.57.396-18 12.5-1.183.821 1.183.821 18 12.5.57.396.57-.396 18-12.5 1.183-.821-1.183-.821-18-12.5Z" stroke="#f9f5f0" stroke-width="2"/>
</svg>